# xmcd
#
# Track frame offsets:
# 150
# 14851
# 26961
# 37893
# 50751
# 63728
# 72679
# 87432
# 99960
# 112721
# 128105
# 139006
# 158559
# 173295
# 185631
#
# Disc length: 2600 seconds
#
#
# Revision: 1
# Processed by: cddbd v1.4PL0 Copyright (c) Steve Scherf et al.
# Submitted via: FreeRIP 2.00 
#
DISCID=ce0a260f
DTITLE=Merle Haggard - Train Whistle Blues - Train Whistle Blues
DYEAR=2001
DGENRE=Country
TTITLE0=My Love Affair With Trains
TTITLE1=Blues For Dixie
TTITLE2=My Rough And Rowdy Ways
TTITLE3=California Blues
TTITLE4=Waitin' For A Train
TTITLE5=White Man Singin The Blues
TTITLE6=Train Whistle Blues
TTITLE7=Hobo's Meditation
TTITLE8=Hobo Bill's Last Ride
TTITLE9=The Silver Ghost
TTITLE10=Life's Railway To Heaven
TTITLE11=The Coming And The Going Of The Trains
TTITLE12=No More Trains To Ride
TTITLE13=The Hobo
TTITLE14=Milwaukee Road 261 At Theresa, Wisconsin
EXTD=
EXTT0=
EXTT1=
EXTT2=
EXTT3=
EXTT4=
EXTT5=
EXTT6=
EXTT7=
EXTT8=
EXTT9=
EXTT10=
EXTT11=
EXTT12=
EXTT13=
EXTT14=
PLAYORDER=
